<?xml version="1.0" encoding="utf-8" ?><svg xmlns="http://www.w3.org/2000/svg" xmlns:xlink="http://www.w3.org/1999/xlink" width="896" height="760" viewBox="0 0 896 760"><path fill="#4B61D1" d="M419.021 432.818C417.304 432.027 414.921 431.45 413.071 430.79C355.907 410.399 343.92 344.626 357.828 292.784C385.738 188.744 505.894 102.969 613.896 127.846C650.442 136.264 681.535 164.816 702.648 194.568C711.047 206.229 719.909 217.165 727.243 229.785L726.815 229.985C704.434 205.575 687.106 192.151 655.561 180.938C590.582 157.839 517.405 163.651 458.774 200.691C420.715 224.734 390.449 257.682 374.439 300.154C363.806 328.363 361.538 364.414 374.568 391.922C383.61 410.587 399.667 424.919 419.235 431.791L419.021 432.818Z"/><path fill="#4B61D1" d="M409.513 408.881C398.176 388.594 395.078 372.627 401.367 349.263C410.131 316.704 434.557 291.607 463.31 275.138C511.875 247.32 569.402 245.393 622.678 260.499C675.922 275.597 729.128 305.756 757.53 355.266C777.27 389.677 776.601 422.267 768.604 460.362C766.257 471.719 763.507 482.988 760.358 494.149C759.958 495.534 759.531 496.911 759.079 498.28C758.308 497.169 758.177 495.155 757.962 493.722C761.611 469.819 751.403 430.849 740.298 409.699C710.893 353.697 663.551 309.247 602.894 289.507C556.481 274.121 505.521 271.645 460.885 294.032C419.137 314.972 387.424 362.484 411.182 408.842L409.513 408.881Z"/><path fill="#4B61D1" d="M472.532 369.845C481.151 371.845 490.727 373.908 498.474 378.269C540.823 402.113 548.285 458.158 538.168 501.303C531.214 530.958 514.696 563.207 495.14 586.224C444.935 645.313 362.654 693.327 282.883 674.628C246.016 665.986 217.107 636.096 194.773 607.125C188.128 598.561 180.694 588.827 175.051 579.603C174.595 578.847 174.159 578.079 173.743 577.3C181.66 585.568 188.293 592.613 197.396 599.675C227.856 623.308 273.456 634.259 311.387 635.04C371.192 636.461 429.05 613.74 471.911 572.004C504.171 541.039 527.695 501.04 528.562 455.383C529.308 416.147 511.152 378.455 469.358 370.567L472.532 369.845Z"/><path fill="#4B61D1" d="M486.925 395.133C516.127 448.322 477.07 501.805 429.687 527.96C332.443 581.64 191.831 540.199 136.117 445.191C113.254 406.202 121.933 354.575 134.355 312.713C135.464 309.01 136.716 305.352 138.11 301.747C136.819 312.204 135.733 321.466 136.083 332.089C137.304 369.119 153.366 404.121 176.228 432.76C240.531 513.31 365.013 562.212 455.416 494.005C484.425 472.117 503.581 433.328 486.761 397.672L486.925 395.133Z"/><path fill="#FF7722" d="M418.852 427.363C408.711 421.298 402.375 416.973 394.934 407.548C368.152 373.625 377.31 323.709 398.659 289.155C459.179 191.55 601.646 170.11 696.213 229.253C727.166 248.611 751.37 273.33 761.207 309.505C765.727 326.128 770.604 340.248 771.928 357.752C752.901 308.589 708.566 270.826 661.252 249.761C604.478 224.485 542.927 216.743 483.94 239.781C445.114 254.945 413.032 283.882 395.9 322.236C385.77 344.913 382.626 370.483 391.599 394.231C396.239 406.511 408.728 421.014 420.558 426.916L418.852 427.363Z"/><path fill="#FF7722" d="M474.049 375.491C478.178 377.609 484.67 380.549 488.269 383.223C525.15 410.632 520.771 466.896 501.924 503.014C478.407 548.625 433.68 578.805 385.712 594.42C341.472 608.82 297.513 607.231 252.66 596.648C197.976 583.745 153.47 555.223 135.907 499.159C130.768 482.239 126.767 464.994 123.932 447.539C128.644 458.244 133.075 468.605 139.606 478.629C164.18 516.346 199.021 539.945 240.546 556.716C331.355 593.392 460.004 576.275 501.201 475.912C509.75 455.087 511.216 425.617 502.274 404.895C495.964 390.629 486.554 383.16 473.07 376.198L474.049 375.491Z"/><path fill="#FF7722" d="M487.489 412.4C488.608 431.918 480.51 453.655 467.094 467.566C400.355 536.432 289.224 496.322 228.329 440.083C187.749 402.606 156.934 351.124 154.19 294.816C151.794 245.639 176.751 210.083 208.889 175.261C211.704 172.196 214.662 169.265 217.752 166.476C123.078 294.059 249.956 507.024 407 487.901C445.693 483.189 478.835 458.069 486.068 418.478L486.704 417.595C486.736 415.288 486.602 414.523 487.489 412.4Z"/><path fill="#FF7722" d="M410.772 398.331C407.076 379.719 411.053 360.404 421.802 344.767C437.745 321.103 466.895 304.187 494.703 299.369C600.314 281.068 715.849 381.819 735.866 481.962C742.296 514.128 737.076 555.421 718.21 582.754C707.221 598.498 695.231 613.52 682.314 627.726L680.27 628.125C705.003 589.437 710.799 545.383 704.467 500.341C696.08 440.124 664.105 385.71 615.582 349.082C580.057 322.413 534.958 308.259 490.327 314.504C450.025 320.144 405.022 352.121 412.018 397.677L410.772 398.331Z"/><path fill="#FF7722" d="M382.084 424.056C379.306 423.167 372.502 418.511 369.814 416.765C343.71 399.997 325.374 368.995 320.235 338.43C301.738 228.412 390.249 104.924 498.996 83.8376C541.117 75.6701 586.277 93.9832 620.201 117.674C588.547 107.553 564.326 104.276 530.227 109.614C422.034 126.551 320.857 231.833 335.568 345.647C339.697 377.595 354.245 401.434 380.406 420.373C380.948 421.689 381.371 422.813 382.084 424.056Z"/><path fill="#4B61D1" d="M272.028 318.338C265.223 295.825 264.592 265.89 266.8 242.504C271.817 189.399 291.935 134.322 333.93 99.3655C374.467 65.6227 424.353 65.9474 474.48 71.0252L474.153 71.714C472.362 71.935 469.973 72.153 468.256 72.5016C364.149 81.3556 281.16 214.201 292.281 312.417C294.562 332.568 298.115 346.052 305.815 364.964C303.546 363.311 299.985 358.752 297.875 356.487C285.513 343.21 280.116 334.116 272.028 318.338Z"/><path fill="#FF7722" d="M509.523 373.323C519.762 375.987 538.974 390.608 546.107 398.564C579.71 436.045 581.904 491.579 569.69 538.842C546.208 629.703 445.101 737.645 342.421 713.058C324.562 708.781 295.04 693.935 280.178 682.974C289.844 686.533 299.612 690.387 309.763 692.428C332.232 696.944 358.204 694.612 380.211 688.31C480.04 659.72 573.461 559.159 558.203 449.788C556.768 439.501 553.475 428.654 549.095 419.208C542.541 404.909 532.607 392.418 520.15 382.814C519.6 380.922 511.505 374.893 509.523 373.323Z"/><path fill="#4B61D1" d="M594.759 453.596C611.905 468.955 616.771 479.81 623.84 500.87C638.97 588.765 598.18 712.835 497.431 727.136C474.34 730.414 446.674 730.87 423.582 727.76L425.472 726.204C484.735 723.82 536.759 675.955 566.419 627.627C599.136 574.32 609.499 514.586 594.759 453.596Z"/><path fill="#FF7722" d="M332.116 87.8823C322.689 94.5803 312.236 101.203 304.034 109.375C247.885 165.315 231.527 256.497 252.909 331.23C254.071 335.292 257.066 341.44 257.337 345.372C255.602 342.708 254.005 340.039 252.468 337.236C239.112 312.885 222.959 290.438 216.083 263.079C214.528 256.894 213.292 250.554 211.459 244.555C211.342 237.437 210.791 230.757 210.986 223.584C212.866 154.191 271.106 109.545 332.116 87.8823Z"/><path fill="#4B61D1" d="M418.334 381.46C439.699 325.267 502.659 320.091 551.767 339.21C602.467 358.949 643.462 403.225 665.372 452.476C680.039 485.934 683.716 514.57 682.08 550.65C679.43 546.242 675.636 533.097 671.747 526.207C666.97 517.745 662.688 512.114 657.755 504.207C653.88 497.997 648.483 486.621 644.964 479.753C640.757 468.326 638.169 458.083 632.928 446.589C612.86 402.344 577.382 364.885 531.691 347.108C500.588 335.006 461.247 334.791 435.647 358.924C428.183 365.961 423.206 372.943 419.666 382.519L418.334 381.46Z"/><path fill="#4B61D1" d="M211.459 244.555C213.292 250.554 214.528 256.894 216.083 263.079C222.959 290.438 239.112 312.885 252.468 337.236C254.005 340.039 255.602 342.708 257.337 345.372C261.504 354.28 265.993 363.883 270.82 372.361C294.171 413.499 332.18 446.399 378.301 458.797C409.204 467.104 445.666 465.206 468.188 439.613C473.803 433.232 478.738 424.371 480.963 416.178L481.169 415.407C481.217 415.76 481.298 416.209 481.226 416.547C471.773 461.376 420.271 479.106 379.115 472.192C296.059 458.238 228.408 383.936 213.377 302.327C210.137 284.74 208.856 262.055 211.459 244.555Z"/><path fill="#FF7722" d="M644.964 479.753C648.483 486.621 653.88 497.997 657.755 504.207C662.688 512.114 666.97 517.745 671.747 526.207C675.636 533.097 679.43 546.242 682.08 550.65C682.415 556.321 683.017 562.161 683.415 567.873C688.589 642.04 624.761 689.795 560.17 709.3C582.088 696.659 596.629 684.186 612.008 664.068C641.394 625.63 654.735 568.126 651.314 520.376C650.715 512.089 649.662 503.841 648.158 495.669C647.148 490.302 645.712 485.159 644.964 479.753Z"/><path fill="#FF7722" d="M435.916 367.506C449.084 355.75 463.716 352.037 480.944 351.333C552.007 348.427 608.078 416.973 620.918 481.616C622.048 487.304 624.155 495.154 623.84 500.87C616.771 479.81 611.905 468.955 594.759 453.596C588.562 438.455 583.395 425.31 573.96 411.724C546.379 372.012 482.176 337.299 437.243 368.151L435.916 367.506Z"/><path fill="#FF7722" d="M272.028 318.338C280.116 334.116 285.513 343.21 297.875 356.487C299.985 358.752 303.546 363.311 305.815 364.964C312.341 375.685 317.333 385.17 325.325 395.3C343.596 418.46 374.208 436.829 402.628 443.983C420.628 448.513 442.623 448.675 458.813 438.826C463.769 435.827 468.125 431.932 471.659 427.341L472.332 428.534C471.559 429.465 470.773 430.385 469.972 431.292C433.72 472.439 361.299 444.756 327.51 413.518C305.3 392.986 287.258 366.148 277.635 337.327C275.612 331.267 272.396 324.713 272.028 318.338Z"/><defs><linearGradient id="gradient_0" gradientUnits="userSpaceOnUse" x1="482.78354" y1="363.88992" x2="477.71768" y2="377.58121"><stop offset="0" stop-color="#4B61D1"/><stop offset="1" stop-color="#4B61D1"/></linearGradient></defs><path fill="url(#gradient_0)" d="M520.15 382.814C503.138 372.992 481.423 365.222 461.559 366.5C455.786 366.872 449.706 368.152 444.02 369.286C449.061 367.213 451.19 366.042 456.779 365.184C475.26 362.348 492.808 365.538 509.523 373.323C511.505 374.893 519.6 380.922 520.15 382.814Z"/><path fill="#4B61D1" d="M380.406 420.373C398.808 429.842 411.689 436.847 433.345 437.805C441.065 437.797 445.086 437.482 452.914 436.021C449.522 437.249 445.597 438.763 442.027 439.134C419.845 441.412 400.759 435.582 382.084 424.056C381.371 422.813 380.948 421.689 380.406 420.373Z"/><path fill="none" d="M433.345 437.805C441.065 437.797 445.086 437.482 452.914 436.021C449.522 437.249 445.597 438.763 442.027 439.134C440.424 437.987 436.181 438.258 433.345 437.805Z"/><path fill="none" d="M422.338 384.273C425.077 379.271 431.105 370.086 435.916 367.506L437.243 368.151C429.856 374.224 428.364 378.294 422.338 384.273Z"/><path fill="none" d="M412.018 397.677C412.98 401.996 415.117 408.763 413.657 412.59C412.921 411.526 412.357 410.201 411.793 409.02C412.523 405.16 411.609 402.111 410.772 398.331L412.018 397.677Z"/><path fill="none" d="M486.068 418.478C485.743 415.487 484.764 402.826 484.896 400.521C486.013 402.223 487.36 410.163 487.489 412.4C486.602 414.523 486.736 415.288 486.704 417.595L486.068 418.478Z"/><path fill="none" d="M419.235 431.791C422.487 432.319 430.206 434.12 433.351 435.116C427.806 434.916 424.431 434.136 419.021 432.818L419.235 431.791Z"/><path fill="none" d="M415.215 396.969C416.084 391.418 416.688 386.846 418.334 381.46L419.666 382.519C417.921 387.216 417.197 391.915 415.215 396.969Z"/><path fill="none" d="M474.48 71.0252C477.255 71.2986 482.333 72.0205 484.897 72.1327L482.289 72.829C480.081 72.3149 471.099 72.4688 468.256 72.5016C469.973 72.153 472.362 71.935 474.153 71.714L474.48 71.0252Z"/><path fill="none" d="M418.852 427.363L420.558 426.916C423.51 428.205 426.529 429.357 429.098 431.284C425.473 430.35 422.003 429.461 418.852 427.363Z"/><path fill="none" d="M409.513 408.881L411.182 408.842L411.793 409.02C412.357 410.201 412.921 411.526 413.657 412.59C414.792 413.907 414.942 414.124 415.823 415.625C413.852 415.188 410.689 410.573 409.513 408.881Z"/><path fill="none" d="M755.877 507.094C757.021 501.972 757.408 498.876 757.962 493.722C758.177 495.155 758.308 497.169 759.079 498.28C758.198 501.707 757.26 503.818 755.877 507.094Z"/><path fill="none" d="M460.669 369.302C464.605 368.703 468.599 369.346 472.532 369.845L469.358 370.567C466.332 370.265 463.667 369.812 460.669 369.302Z"/><path fill="none" d="M484.897 72.1327C486.684 72.277 489.331 72.2578 490.736 73.1649C488.396 73.7242 484.64 73.3554 482.289 72.829L484.897 72.1327Z"/><path fill="none" d="M473.07 376.198L466.893 373.787L466.46 372.792C465.943 372.792 466.165 372.741 465.784 372.885L465.861 373.178C468.186 372.584 471.679 374.48 474.049 375.491L473.07 376.198Z"/><path fill="none" d="M482.45 391.038C481.02 389.608 478.422 387.352 478.099 385.55C480.149 386.556 481.401 388.35 482.932 390.117L482.45 391.038Z"/><path fill="none" d="M482.932 390.117L486.925 395.133L486.761 397.672C485.196 394.824 484.409 393.636 482.45 391.038L482.932 390.117Z"/><path fill="none" d="M471.659 427.341C472.923 425.969 473.941 424.349 475.469 423.953C474.778 425.684 473.673 427.238 472.332 428.534L471.659 427.341Z"/><path fill="none" d="M680.27 628.125L682.314 627.726C681.224 629.124 678.05 632.086 676.625 633.476C677.784 631.011 678.195 629.976 680.27 628.125Z"/></svg>